HIERARCHY
ROOT Hips
{
	OFFSET -3.958830 18.904000 13.208200
	CHANNELS 6 Xposition Yposition Zposition Zrotation Yrotation Xrotation 
	JOINT LHipJoint
	{
		OFFSET 0.000000 0.000000 0.000000
		CHANNELS 3 Zrotation Yrotation Xrotation
		JOINT LeftUpLeg
		{
			OFFSET 1.800000 -1.400000 0.085000
			CHANNELS 3 Zrotation Yrotation Xrotation
			JOINT LeftLeg
			{
				OFFSET 2.215000 -6.000000 0.000000
				CHANNELS 3 Zrotation Yrotation Xrotation
				JOINT LeftFoot
				{
					OFFSET 2.500000 -6.900000 0.000000
					CHANNELS 3 Zrotation Yrotation Xrotation
					JOINT LeftToeBase
					{
						OFFSET 0.200000 -0.500000 1.950000
						CHANNELS 3 Zrotation Yrotation Xrotation
						End Site
						{
							OFFSET 0.000000 0.000000 0.000000
						}
					}
				}
			}
		}
	}
	JOINT RHipJoint
	{
		OFFSET 0.000000 0.000000 0.000000
		CHANNELS 3 Zrotation Yrotation Xrotation
		JOINT RightUpLeg
		{
			OFFSET -1.800000 -1.400000 0.085000
			CHANNELS 3 Zrotation Yrotation Xrotation
			JOINT RightLeg
			{
				OFFSET -2.215000 -6.000000 0.000000
				CHANNELS 3 Zrotation Yrotation Xrotation
				JOINT RightFoot
				{
					OFFSET -2.500000 -6.900000 0.000000
					CHANNELS 3 Zrotation Yrotation Xrotation
					JOINT RightToeBase
					{
						OFFSET -0.200000 -0.500000 1.950000
						CHANNELS 3 Zrotation Yrotation Xrotation
						End Site
						{
							OFFSET 0.000000 0.000000 0.000000
						}
					}
				}
			}
		}
	}
	JOINT LowerBack
	{
		OFFSET 0.000000 0.000000 0.000000
		CHANNELS 3 Zrotation Yrotation Xrotation
		JOINT Spine
		{
			OFFSET -0.087000 1.940000 -0.288900
			CHANNELS 3 Zrotation Yrotation Xrotation
			JOINT Spine1
			{
				OFFSET 0.000000 1.950000 0.060000
				CHANNELS 3 Zrotation Yrotation Xrotation
				JOINT Neck
				{
					OFFSET 0.000000 0.000000 0.000000
					CHANNELS 3 Zrotation Yrotation Xrotation
					JOINT Neck1
					{
						OFFSET 0.000000 1.600000 0.340000
						CHANNELS 3 Zrotation Yrotation Xrotation
						JOINT Head
						{
							OFFSET 0.000000 1.667000 -0.240000
							CHANNELS 3 Zrotation Yrotation Xrotation
							End Site
							{
								OFFSET 0.000000 0.000000 0.000000
							}
						}
					}
				}
				JOINT LeftShoulder
				{
					OFFSET 0.000000 0.000000 0.000000
					CHANNELS 3 Zrotation Yrotation Xrotation
					JOINT LeftArm
					{
						OFFSET 2.700000 1.550000 -0.730000
						CHANNELS 3 Zrotation Yrotation Xrotation
						JOINT LeftForeArm
						{
							OFFSET 5.450000 0.000000 0.000000
							CHANNELS 3 Zrotation Yrotation Xrotation
							JOINT LeftHand
							{
								OFFSET 3.450000 0.000000 0.000000
								CHANNELS 3 Zrotation Yrotation Xrotation
								JOINT LeftHandIndex1
								{
									OFFSET 0.750000 0.000000 0.000000
									CHANNELS 3 Zrotation Yrotation Xrotation
									End Site
									{
										OFFSET 0.000000 0.000000 0.000000
									}
								}
							}
						}
					}
				}
				JOINT RightShoulder
				{
					OFFSET 0.000000 0.000000 0.000000
					CHANNELS 3 Zrotation Yrotation Xrotation
					JOINT RightArm
					{
						OFFSET -2.700000 1.550000 -0.730000
						CHANNELS 3 Zrotation Yrotation Xrotation
						JOINT RightForeArm
						{
							OFFSET -5.450000 0.000000 0.000000
							CHANNELS 3 Zrotation Yrotation Xrotation
							JOINT RightHand
							{
								OFFSET -3.450000 0.000000 0.000000
								CHANNELS 3 Zrotation Yrotation Xrotation
								JOINT RightHandIndex1
								{
									OFFSET -0.750000 0.000000 0.000000
									CHANNELS 3 Zrotation Yrotation Xrotation
									End Site
									{
										OFFSET 0.000000 0.000000 0.000000
									}
								}
							}
						}
					}
				}
			}
		}
	}
}
MOTION
Frames: 11
Frame Time: 0.016667
-0.034910 16.863240 -0.272960 -3.202076 -22.247737 6.243084 -14.990741 13.365223 2.454318 9.449663 -0.951845 -10.870168 -7.124189 6.621135 14.909811 -0.247991 4.778691 3.215362 0.156120 -0.205670 0.035800 18.401447 -11.093014 2.585815 -8.860637 0.996030 -14.137322 10.814295 -6.205275 13.303098 -0.043396 -3.997966 3.194859 -0.001840 0.662410 0.323690 -3.841218 -1.220698 -6.389754 8.633252 -0.523704 1.372736 -4.290379 -0.750301 2.960962 1.752044 -2.964149 -4.871165 -5.580257 6.118686 27.353954 -2.048360 4.740480 3.330800 -22.381089 2.085383 -0.219918 -55.149964 -3.802567 -2.366793 -16.590007 -14.232143 0.279622 -4.212479 3.039255 0.128250 0.506870 -0.349760 0.295190 18.847880 -0.457585 1.478768 59.647051 2.115894 -5.882391 19.534714 17.361986 0.614946 2.222269 -1.569625 -0.237160 0.143600 0.042880 -0.076230 
-0.034760 16.863410 -0.273020 -3.215482 -22.265434 6.242104 -14.990329 13.365806 2.454344 9.458399 -0.952023 -10.871905 -7.118465 6.620704 14.915637 -0.247705 4.777429 3.214798 0.157550 -0.205090 0.037740 18.401569 -11.094861 2.585488 -8.845451 0.997508 -14.146792 10.801570 -6.208679 13.333505 -0.044246 -3.997508 3.194681 -0.002520 0.660110 0.324730 -3.841486 -1.218171 -6.389861 8.637318 -0.524270 1.372989 -4.291376 -0.753173 2.979545 1.763445 -2.944807 -4.881384 -5.550665 6.114566 27.402042 -2.065360 4.763740 3.334360 -22.253017 2.131412 -0.214864 -55.245108 -3.815352 -2.373907 -16.638695 -14.303560 0.291810 -4.211141 3.040853 0.129440 0.505880 -0.348380 0.294920 18.699574 -0.515842 1.473521 59.760429 2.139170 -5.883891 19.583754 17.399208 0.627162 2.222398 -1.570913 -0.235840 0.141380 0.041850 -0.077070 
-0.034530 16.864250 -0.273320 -3.232594 -22.297609 6.226544 -14.989958 13.368663 2.455247 9.476118 -0.952755 -10.886798 -7.118670 6.631232 14.966890 -0.246816 4.778717 3.211445 0.159190 -0.204210 0.040970 18.401023 -11.098303 2.584659 -8.817152 0.997015 -14.154596 10.759344 -6.208491 13.377883 -0.045818 -3.992733 3.195512 -0.003800 0.654650 0.325420 -3.839746 -1.216996 -6.391777 8.626016 -0.527477 1.387416 -4.286067 -0.758623 3.011068 1.784607 -2.905329 -4.906084 -5.497107 6.108309 27.539161 -2.085280 4.807480 3.312740 -22.006316 2.206589 -0.201547 -55.427883 -3.844055 -2.385779 -16.695319 -14.418578 0.309724 -4.207866 3.041015 0.132970 0.502650 -0.344450 0.293670 18.416788 -0.614305 1.468030 59.983254 2.187800 -5.889460 19.655231 17.462927 0.649430 2.223343 -1.570553 -0.234090 0.138500 0.040400 -0.078860 
-0.034150 16.865600 -0.273890 -3.247089 -22.344220 6.188805 -14.990391 13.374458 2.457593 9.497887 -0.951657 -10.901108 -7.132365 6.653546 15.051186 -0.243735 4.781776 3.205798 0.161650 -0.202140 0.045650 18.398924 -11.102041 2.583323 -8.797225 0.994690 -14.165249 10.716381 -6.214747 13.452114 -0.049240 -3.986271 3.196276 -0.006060 0.645470 0.325430 -3.833566 -1.220793 -6.396429 8.579637 -0.532344 1.419078 -4.247806 -0.765486 3.063238 1.807183 -2.851403 -4.954038 -5.434705 6.096194 27.781202 -2.098330 4.860040 3.261770 -21.625155 2.302665 -0.170428 -55.735117 -3.884441 -2.410020 -16.771315 -14.598000 0.335739 -4.201486 3.040663 0.138550 0.496270 -0.337630 0.291700 18.002584 -0.735977 1.471606 60.283128 2.249882 -5.909288 19.781970 17.588457 0.689461 2.224947 -1.569060 -0.230860 0.135020 0.038250 -0.081210 
-0.033460 16.867760 -0.274610 -3.266725 -22.394373 6.137468 -14.991023 13.382635 2.459061 9.517434 -0.950766 -10.918790 -7.120974 6.674461 15.161877 -0.240974 4.784068 3.199907 0.163060 -0.201890 0.051200 18.396178 -11.106895 2.582248 -8.776082 0.991583 -14.177539 10.677369 -6.227993 13.547628 -0.052173 -3.980603 3.197711 -0.009840 0.635260 0.324940 -3.825465 -1.226115 -6.401729 8.519756 -0.532806 1.454571 -4.189372 -0.769752 3.145090 1.835639 -2.771684 -5.021044 -5.339316 6.062622 28.099835 -2.135610 4.925950 3.238750 -21.125082 2.402535 -0.124466 -56.144947 -3.959284 -2.425876 -16.888506 -14.800844 0.369640 -4.195162 3.038802 0.145020 0.489820 -0.330670 0.288430 17.462349 -0.877927 1.485530 60.691064 2.319608 -5.950488 19.901498 17.761984 0.734340 2.226180 -1.566451 -0.227910 0.131010 0.036310 -0.084660 
-0.032890 16.870640 -0.275330 -3.272508 -22.451205 6.068210 -14.992211 13.394709 2.459100 9.511634 -0.948877 -10.930657 -7.062374 6.684267 15.290892 -0.237861 4.782083 3.195224 0.163500 -0.202750 0.056360 18.392386 -11.112831 2.580953 -8.769279 0.986171 -14.194681 10.634043 -6.244939 13.659911 -0.055503 -3.975053 3.198004 -0.014950 0.624380 0.325270 -3.814279 -1.235812 -6.406381 8.431143 -0.529733 1.488754 -4.106300 -0.770565 3.264885 1.857523 -2.690401 -5.112755 -5.254376 6.013827 28.478854 -2.181520 4.981730 3.233610 -20.462953 2.515435 -0.060403 -56.690151 -4.079922 -2.427671 -17.039800 -15.023489 0.409713 -4.188670 3.037372 0.151860 0.482710 -0.322700 0.284600 16.777052 -1.028370 1.516491 61.203399 2.399663 -6.007425 20.063777 17.975639 0.789506 2.227622 -1.564273 -0.224190 0.126140 0.034940 -0.087820 
-0.032190 16.874540 -0.276390 -3.276337 -22.518333 5.975329 -14.993062 13.411649 2.460002 9.499628 -0.944851 -10.937704 -6.987773 6.696836 15.458071 -0.232626 4.778186 3.188753 0.164890 -0.201390 0.063400 18.387806 -11.120428 2.579507 -8.760664 0.979137 -14.214553 10.574388 -6.265527 13.811961 -0.061054 -3.966413 3.197019 -0.020800 0.608890 0.325670 -3.801166 -1.251237 -6.414110 8.336285 -0.527758 1.547745 -3.990969 -0.771226 3.402407 1.868174 -2.623544 -5.236047 -5.217543 5.957914 28.981047 -2.227600 5.030490 3.172580 -19.668430 2.623908 0.030279 -57.335839 -4.231786 -2.418406 -17.271925 -15.286543 0.465148 -4.177840 3.036163 0.161000 0.471620 -0.310170 0.279370 15.982421 -1.154683 1.569255 61.767476 2.503158 -6.066616 20.232719 18.198766 0.852046 2.231350 -1.560413 -0.218130 0.120090 0.032550 -0.090650 
-0.031480 16.879150 -0.277690 -3.279844 -22.593601 5.864127 -14.993929 13.432907 2.461799 9.479061 -0.941149 -10.944789 -6.897713 6.710457 15.654463 -0.229996 4.776075 3.181023 0.166150 -0.201820 0.070570 18.382575 -11.128680 2.577415 -8.735684 0.970981 -14.228513 10.482764 -6.283516 13.982469 -0.066031 -3.954676 3.198997 -0.027720 0.592810 0.324930 -3.786132 -1.273812 -6.423703 8.237057 -0.527720 1.620325 -3.854785 -0.772115 3.566126 1.868569 -2.565596 -5.392542 -5.216570 5.909461 29.582109 -2.254690 5.066660 3.106580 -18.741988 2.706006 0.149113 -58.071540 -4.422015 -2.388280 -17.568393 -15.563714 0.528332 -4.165543 3.033568 0.173470 0.459540 -0.297990 0.273290 15.077513 -1.245819 1.651218 62.413118 2.615563 -6.148614 20.366301 18.450386 0.915059 2.232324 -1.554314 -0.213430 0.115140 0.031530 -0.095340 
-0.030610 16.884440 -0.279480 -3.305840 -22.679062 5.732422 -14.993791 13.457726 2.464793 9.478012 -0.936509 -10.944161 -6.799140 6.726125 15.872500 -0.225946 4.772397 3.171703 0.171210 -0.198610 0.083300 18.377226 -11.138842 2.576107 -8.681301 0.961968 -14.230668 10.370277 -6.301394 14.182916 -0.074954 -3.938097 3.200975 -0.034670 0.570130 0.324170 -3.771084 -1.299089 -6.438326 8.159811 -0.526258 1.723627 -3.704008 -0.769085 3.762375 1.877986 -2.502340 -5.593218 -5.232172 5.842121 30.338610 -2.304610 5.113550 2.956380 -17.724376 2.716311 0.307905 -58.877886 -4.646938 -2.356614 -17.865356 -15.871679 0.594229 -4.146915 3.031140 0.189980 0.442350 -0.280070 0.266570 14.063928 -1.264122 1.776573 63.104895 2.742831 -6.248136 20.508130 18.715585 0.982614 2.234233 -1.547366 -0.206370 0.109220 0.027620 -0.101390 
-0.030140 16.890020 -0.281380 -3.315505 -22.773662 5.567960 -14.994568 13.486609 2.467881 9.455181 -0.928454 -10.918529 -6.674418 6.736287 16.105188 -0.224018 4.766125 3.161831 0.178830 -0.192750 0.098820 18.370293 -11.149367 2.574835 -8.640337 0.946327 -14.206433 10.254915 -6.320113 14.380267 -0.086313 -3.919871 3.202853 -0.040530 0.543670 0.321980 -3.751317 -1.331177 -6.455179 8.042050 -0.518107 1.839695 -3.514661 -0.757816 3.998204 1.879754 -2.437649 -5.828070 -5.271312 5.770947 31.235804 -2.337320 5.148560 2.724920 -16.589747 2.674105 0.501139 -59.773904 -4.926041 -2.302769 -18.170066 -16.189160 0.661003 -4.123496 3.027607 0.210720 0.421480 -0.259060 0.259240 12.953961 -1.222324 1.930860 63.852001 2.904303 -6.348735 20.595110 18.954128 1.041799 2.235323 -1.538243 -0.199500 0.104530 0.022820 -0.108940 
-0.029590 16.895820 -0.283690 -3.326295 -22.884081 5.380600 -14.994910 13.518009 2.472328 9.432205 -0.920316 -10.885839 -6.546403 6.747887 16.357771 -0.221832 4.758649 3.149870 0.190460 -0.182510 0.118340 18.362963 -11.161142 2.573305 -8.600427 0.930873 -14.187960 10.129077 -6.343022 14.619740 -0.100487 -3.900475 3.202837 -0.044880 0.511590 0.320020 -3.730753 -1.366150 -6.475013 7.927998 -0.513006 1.973502 -3.316069 -0.747390 4.275505 1.883271 -2.377882 -6.101880 -5.342579 5.700409 32.264640 -2.369690 5.183300 2.421930 -15.351220 2.562777 0.732861 -60.738471 -5.254504 -2.235535 -18.469118 -16.519200 0.726845 -4.094408 3.026450 0.234180 0.396660 -0.233870 0.251340 11.738254 -1.103475 2.120677 64.652624 3.108532 -6.448765 20.686039 19.189088 1.100669 2.236442 -1.530525 -0.190500 0.098170 0.015700 -0.117510 
